<svg version="1.1" xmlns="http://www.w3.org/2000/svg" xmlns:xlink="http://www.w3.org/1999/xlink" width="182.34302" height="120.77688" viewBox="0,0,182.34302,120.77688"><g transform="translate(-163.69896,-118.25148)"><g data-paper-data="{&quot;isPaintingLayer&quot;:true}" fill-rule="nonzero" stroke-linecap="butt" stroke-linejoin="miter" stroke-miterlimit="10" stroke-dasharray="" stroke-dashoffset="0" style="mix-blend-mode: normal"><path d="M165.34156,149.84912v-11.00958h73.03021v11.00958z" fill="#000000" stroke="#000000" stroke-width="2"/><path d="M165.21795,139.22296l11.00942,0.05958l-0.39523,73.02915l-11.00942,-0.05958z" fill="#000000" stroke="#000000" stroke-width="2"/><path d="M164.69896,212.6951v-11.00958h73.03022v11.00958z" fill="#000000" stroke="#000000" stroke-width="2"/><path d="M246.55106,131.37845l11.00942,0.06646l-0.39523,81.46294l-11.00942,-0.06646z" fill="#000000" stroke="#000000" stroke-width="2"/><path d="M191.62675,130.26106v-11.00958h123.67428v11.00958z" fill="#000000" stroke="#000000" stroke-width="2"/><text transform="translate(181.40214,232.63669) scale(0.5,0.5)" font-size="40" xml:space="preserve" fill="#000000" fill-rule="nonzero" stroke="none" stroke-width="1" stroke-linecap="butt" stroke-linejoin="miter" stroke-miterlimit="10" stroke-dasharray="" stroke-dashoffset="0" font-family="Sans Serif" font-weight="normal" text-anchor="start" style="mix-blend-mode: normal"><tspan x="0" dy="0">Culture_Test</tspan></text><path d="M275.99417,207.51243l-8.76425,-7.18668l42.54516,-51.88434l8.76425,7.18668z" fill="#c15400" stroke="none" stroke-width="0"/><path d="M264.77621,154.17543v-12.24076l56.21683,4.08025l-4.08025,8.16051z" fill="#00d8b8" stroke="none" stroke-width="0"/><path d="M314.50498,153.49155l5.93388,-6.93047l25.60312,50.21415l-11.27894,4.75624z" data-paper-data="{&quot;index&quot;:null}" fill="#00d8b8" stroke="none" stroke-width="0"/><text transform="translate(276.05625,207.53987) rotate(-52.0864) scale(0.35519,0.35519)" font-size="40" xml:space="preserve" fill="#000000" fill-rule="nonzero" stroke="none" stroke-width="1" stroke-linecap="butt" stroke-linejoin="miter" stroke-miterlimit="10" stroke-dasharray="" stroke-dashoffset="0" font-family="Sans Serif" font-weight="normal" text-anchor="start" style="mix-blend-mode: normal"><tspan x="0" dy="0">Creator</tspan></text></g></g></svg>